# AST/ASF file generated using VICON BodyLanguage
# -----------------------------------------------
:version 1.10
:name VICON
:units
  mass 1.0
  length 0.45
  angle deg
:documentation
   .ast/.asf automatically generated from VICON data using
   VICON BodyBuilder and BodyLanguage model FoxedUp or BRILLIANT.MOD
:root
   order TX TY TZ RX RY RZ
   axis XYZ
   position 0 0 0  
   orientation 0 0 0 
:bonedata
  begin
     id 1 
     name lhipjoint
     direction 0.653368 -0.678499 0.335782 
     length 2.51848 
     axis 0 0 0  XYZ
  end
  begin
     id 2 
     name lfemur
     direction 0.34202 -0.939693 0  
     length 6.57749  
     axis 0 0 20  XYZ
    dof rx ry rz
    limits (-160.0 20.0)
           (-70.0 70.0)
           (-60.0 70.0)
  end
  begin
     id 3 
     name ltibia
     direction 0.34202 -0.939693 0   
     length 7.94618   
     axis 0 0 20   XYZ
    dof rx
    limits (-10.0 170.0)
  end
  begin
     id 4 
     name lfoot
     direction 0.0811271 -0.222895 0.971461   
     length 2.31339   
     axis -90 7.62852e-016 20   XYZ
    dof rx rz
    limits (-45.0 90.0)
           (-70.0 20.0)
  end
  begin
     id 5 
     name ltoes
     direction 1.53568e-011 -4.21885e-011 1   
     length 1.15935   
     axis -90 7.62852e-016 20   XYZ
    dof rx
    limits (-90.0 20.0)
  end
  begin
     id 6 
     name rhipjoint
     direction -0.640058 -0.688614 0.340788   
     length 2.48149  
     axis 0 0 0  XYZ 
  end
  begin
     id 7 
     name rfemur
     direction -0.34202 -0.939693 0   
     length 6.57875   
     axis 0 0 -20   XYZ
    dof rx ry rz
    limits (-160.0 20.0)
           (-70.0 70.0)
           (-70.0 60.0)
  end
  begin
     id 8 
     name rtibia
     direction -0.34202 -0.939693 0   
     length 7.977   
     axis 0 0 -20   XYZ
    dof rx
    limits (-10.0 170.0)
 end
 begin
     id 9 
     name rfoot
     direction -0.0979793 -0.269196 0.958089   
     length 2.19857  
     axis -90 -7.62852e-016 -20   XYZ
    dof rx rz
    limits (-45.0 90.0)
           (-20.0 70.0)
  end
  begin
     id 10 
     name rtoes
     direction -1.53556e-011 -4.21868e-011 1   
     length 1.09838   
     axis -90 -7.62852e-016 -20   XYZ
    dof rx
    limits (-90.0 20.0)
  end
  begin
     id 11 
     name lowerback
     direction 0.0149039 0.998517 -0.0523597   
     length 2.10809   
     axis 0 0 0   XYZ
    dof rx ry rz
    limits (-20.0 45.0)
           (-30.0 30.0)
           (-30.0 30.0)
  end
  begin
     id 12 
     name upperback
     direction -0.00882659 0.999418 -0.0329624   
     length 2.1102   
     axis 0 0 0   XYZ
    dof rx ry rz
    limits (-20.0 45.0)
           (-30.0 30.0)
           (-30.0 30.0)
  end
  begin
     id 13 
     name thorax
     direction -0.0165585 0.999826 -0.0085833   
     length 2.11039   
     axis 0 0 0   XYZ
    dof rx ry rz
    limits (-20.0 45.0)
           (-30.0 30.0)
           (-30.0 30.0)
  end
  begin
     id 14 
     name lowerneck
     direction -0.0130877 0.999911 0.00260353   
     length 1.73253   
     axis 0 0 0   XYZ
    dof rx ry rz
    limits (-20.0 45.0)
           (-30.0 30.0)
           (-30.0 30.0)
  end
  begin
     id 15 
     name upperneck
     direction -0.0348454 0.928205 -0.370435   
     length 1.66692   
     axis 0 0 0   XYZ
    dof rx ry rz
    limits (-20.0 45.0)
           (-30.0 30.0)
           (-30.0 30.0)
  end
  begin
     id 16
     name head
     direction -0.00807754 0.992494 -0.122026  
     length 1.72765  
     axis 0 0 0   XYZ
    dof rx ry rz
    limits (-20.0 45.0)
           (-30.0 30.0)
           (-30.0 30.0)
  end
  begin
     id 17 
     name lclavicle
     direction 0.987582 0.144023 0.0627671  
     length 3.49235  
     axis 0 0 0   XYZ
    dof ry rz
    limits (-20.0 10.0)
           (0.0 20.0)
  end
  begin
     id 18 
     name lhumerus
     direction 1 -4.48958e-011 -1.45183e-018   
     length 5.41917   
     axis 180 -30 -90   XYZ
    dof rx ry rz
    limits (-60.0 90.0)
           (-90.0 90.0)
           (-90.0 90.0)
  end
  begin
     id 19
     name lradius
     direction 1 -4.48999e-011 5.75106e-027   
     length 2.44373   
     axis 180 -30 -90   XYZ
    dof rx
    limits (-10.0 170.0)
  end
  begin
     id 20
     name lwrist
     direction 1 -4.48987e-011 1.53461e-026   
     length 1.22186   
     axis -1.09697e-014 90 90   XYZ
    dof ry
    limits (-180.0 0.0)
 end
  begin
     id 21 
     name lhand
     direction 1 -4.48881e-011 3.06923e-026   
     length 0.727502   
     axis -1.95843e-014 90 90   XYZ
    dof rx rz
    limits (-90.0 90.0)
           (-45.0 45.0)
  end
  begin
     id 22 
     name lfingers
     direction 1 -4.48907e-011 6.13845e-026   
     length 0.586531   
     axis -3.91686e-014 90 90   XYZ
    dof rx
    limits (0.0 90.0)
  end
  begin
     id 23
     name lthumb
     direction 0.707107 -6.3487e-011 0.707107   
     length 0.842145   
     axis -90 45 2.85299e-015   XYZ
    dof rx rz
    limits (-45.0 45.0)
           (-45.0 45.0)
  end
  begin
     id 24 
     name rclavicle
     direction -0.980998 0.169556 0.0943023   
     length 3.29272  
     axis 0 0 0   XYZ 
    dof ry rz
    limits (-10.0 20.0)
           (-20.0 0.0)
  end
  begin
     id 25 
     name rhumerus
     direction -1 -1.83355e-005 2.45537e-005  
     length 5.58976   
     axis 180 30 90   XYZ
    dof rx ry rz
    limits (-90.0 60.0)
           (-90.0 90.0)
           (-90.0 90.0)
  end
  begin
     id 26 
     name rradius
     direction -1 -4.48967e-011 5.97228e-027   
     length 2.4806   
     axis 180 30 90   XYZ
    dof rx
    limits (-10.0 170.0)
  end
  begin
     id 27 
     name rwrist
     direction -1 -4.48963e-011 1.53461e-026   
     length 1.2403   
     axis -1.09697e-014 -90 -90   XYZ
    dof ry
    limits (-180.0 0.0)
  end
  begin
     id 28
     name rhand
     direction -1 -4.48881e-011 3.06923e-026   
     length 0.816009   
     axis -1.95843e-014 -90 -90   XYZ
    dof rx rz
    limits (-90.0 90.0)
           (-45.0 45.0)
  end
  begin
     id 29
     name rfingers
     direction -1 -4.49018e-011 6.13845e-026   
     length 0.657887   
     axis -3.91686e-014 -90 -90   XYZ
    dof rx
    limits (0.0 90.0)
  end
  begin
     id 30
     name rthumb
     direction -0.707107 -6.34872e-011 0.707107   
     length 0.944599   
     axis -90 -45 -2.85299e-015   XYZ
    dof rx rz
    limits (-45.0 45.0)
           (-45.0 45.0)
  end
:hierarchy
  begin
    root lhipjoint rhipjoint lowerback
    lhipjoint lfemur
    lfemur ltibia
    ltibia lfoot
    lfoot ltoes
    rhipjoint rfemur
    rfemur rtibia
    rtibia rfoot
    rfoot rtoes
    lowerback upperback
    upperback thorax
    thorax lowerneck lclavicle rclavicle
    lowerneck upperneck
    upperneck head
    lclavicle lhumerus
    lhumerus lradius
    lradius lwrist
    lwrist lhand lthumb
    lhand lfingers
    rclavicle rhumerus
    rhumerus rradius
    rradius rwrist
    rwrist rhand rthumb
    rhand rfingers
  end

#!OML:ASF F:\VICON\USERDATA\INSTALL\rory3\rory3.ASF
:FULLY-SPECIFIED
:DEGREES
65
root 3.56616 17.0001 10.1048 20.3663 -81.0425 3.48055
lowerback -3.92758 1.18984 -2.41205
upperback -6.94376 1.53169 3.66764
thorax -5.18748 0.908643 5.18293
lowerneck -6.47387 -10.4202 -7.26767
upperneck 32.3383 -19.8826 11.87
head 14.1837 -8.79682 2.86489
rclavicle 2.00773e-014 2.22639e-014
rhumerus -19.0649 29.0191 -108.705
rradius 31.2884
rwrist -69.347
rhand -39.9126 7.38101
rfingers 7.12502
rthumb -12.8835 -22.2013
lclavicle 2.00773e-014 2.22639e-014
lhumerus -13.3157 -55.6163 107.476
lradius 52.779
lwrist 56.244
lhand -10.0037 31.7566
lfingers 7.12502
lthumb 15.9801 61.1174
rfemur -44.9261 -9.62631 2.13729
rtibia 41.7002
rfoot -65.764 -16.5119
rtoes 61.362
lfemur -38.6502 4.08915 -25.6067
ltibia 33.4812
lfoot -48.079 26.6533
ltoes 31.1814
66
root 3.56406 16.9915 9.99827 19.2928 -81.8068 4.59488
lowerback -3.77944 1.20381 -2.42469
upperback -6.78409 1.55683 3.89216
thorax -5.11387 0.925167 5.42514
lowerneck -6.64713 -10.1991 -7.24993
upperneck 32.2117 -19.4534 11.7647
head 14.0837 -8.61091 2.8877
rclavicle -4.17448e-015 6.36111e-015
rhumerus -20.4829 34.8867 -109.912
rradius 34.6824
rwrist -73.8907
rhand -41.1491 6.58693
rfingers 7.12502
rthumb -14.0753 -22.9164
lclavicle -4.17448e-015 6.36111e-015
lhumerus -13.6156 -56.7403 107.072
lradius 55.9723
lwrist 57.4264
lhand -8.69474 30.9171
lfingers 7.12502
lthumb 17.2403 60.1723
rfemur -45.2733 -10.422 2.55275
rtibia 41.9343
rfoot -65.6404 -15.2483
rtoes 61.5895
lfemur -38.7586 4.16878 -25.3624
ltibia 33.6177
lfoot -49.04 26.4011
ltoes 31.8801
67
root 3.57009 16.9835 9.90574 18.6446 -82.2285 5.35247
lowerback -3.61698 1.46393 -1.96917
upperback -6.66984 1.90211 3.73789
thorax -5.09679 1.07052 4.9944
lowerneck -6.78019 -10.305 -6.61191
upperneck 31.85 -19.6923 11.9288
head 13.9319 -8.62391 2.7987
rclavicle -3.06128e-014 -3.49861e-014
rhumerus -20.4239 36.7345 -109.927
rradius 37.3471
rwrist -76.9595
rhand -40.3353 3.97705
rfingers 7.12502
rthumb -13.291 -25.5791
lclavicle -3.06128e-014 -3.49861e-014
lhumerus -14.087 -59.1711 106.671
lradius 59.0951
lwrist 58.7992
lhand -6.19902 29.6249
lfingers 7.12502
lthumb 19.641 58.6527
rfemur -45.342 -10.0167 2.47689
rtibia 41.9916
rfoot -66.4855 -13.7693
rtoes 61.6732
lfemur -38.9794 3.90894 -24.9864
ltibia 33.7542
lfoot -50.1285 25.6666
ltoes 33.4817
68
root 3.5572 16.9644 9.78303 20.2975 -83.2148 3.60662
lowerback -3.43406 1.62122 -1.93741
upperback -6.43351 2.12145 4.05578
thorax -4.9873 1.18332 5.30594
lowerneck -7.07305 -10.0717 -6.53566
upperneck 31.7549 -19.3633 12.064
head 13.9184 -8.44233 2.87929
rclavicle -4.13472e-014 -2.54444e-014
rhumerus -21.3205 40.7369 -110.665
rradius 40.2389
rwrist -79.9712
rhand -41.0101 3.57983
rfingers 7.12502
rthumb -13.9413 -25.9328
lclavicle -4.13472e-014 -2.54444e-014
lhumerus -14.1592 -60.2595 105.964
lradius 61.8521
lwrist 59.7339
lhand -1.68024 22.7652
lfingers 7.12502
lthumb 23.98 51.2874
rfemur -46.3072 -14.2493 4.91784
rtibia 42.1984
rfoot -60.8956 -21.0241
rtoes 60.7373
lfemur -38.9575 4.40364 -24.3287
ltibia 34.0182
lfoot -51.262 24.6519
ltoes 35.0777
69
root 3.55792 16.9621 9.68846 17.9102 -83.5671 6.21575
lowerback -3.29304 1.66739 -1.86142
upperback -6.41008 2.18475 4.11992
thorax -5.04916 1.21345 5.32635
lowerneck -7.38767 -9.93311 -6.18994
upperneck 31.7906 -19.1715 11.9529
head 13.9218 -8.30974 2.79722
rclavicle 7.95139e-016 3.65764e-014
rhumerus -21.702 44.1664 -111.06
rradius 42.6178
rwrist -83.3343
rhand -40.9703 3.55551
rfingers 7.12502
rthumb -13.903 -25.9597
lclavicle 7.95139e-016 3.65764e-014
lhumerus -14.5375 -61.3001 105.989
lradius 64.1578
lwrist 60.5402
lhand -3.11719 25.2082
lfingers 7.12502
lthumb 22.6015 53.905
rfemur -46.1402 -11.8346 3.81131
rtibia 42.3904
rfoot -62.8166 -17.2578
rtoes 60.8389
lfemur -39.1999 3.71472 -24.0233
ltibia 34.1374
lfoot -52.5847 24.1662
ltoes 35.9827
70
root 3.55375 16.9272 9.57662 9.25746 -84.1495 15.4257
lowerback -3.47769 1.70116 -2.52729
upperback -6.45318 2.22932 3.96312
thorax -5.02014 1.26555 5.54338
lowerneck -7.5123 -9.76987 -5.8101
upperneck 31.6904 -18.9591 11.9338
head 13.8307 -8.17261 2.76016
rclavicle -8.54774e-015 -2.06736e-014
rhumerus -22.7465 47.4124 -111.223
rradius 45.8666
rwrist -86.9957
rhand -40.2816 2.92142
rfingers 7.12502
rthumb -13.2392 -26.6381
lclavicle -8.54774e-015 -2.06736e-014
lhumerus -15.3954 -62.4282 105.921
lradius 66.6921
lwrist 61.0248
lhand -3.31813 24.8402
lfingers 7.12502
lthumb 22.4086 53.5603
rfemur -47.7327 -15.6605 4.91232
rtibia 42.9414
rfoot -57.2132 -22.553
rtoes 59.6202
lfemur -39.7869 3.38831 -24.5376
ltibia 34.2746
lfoot -53.4582 23.9694
ltoes 36.7041
